<svg height="200" viewBox="0 0 1024 1024" width="200" xmlns="http://www.w3.org/2000/svg"><path d="m512.6 74.9c-241.8 0-437.9 196-437.9 437.9 0 241.8 196 437.9 437.9 437.9 241.8 0 437.9-196 437.9-437.9 0-241.8-196.1-437.9-437.9-437.9zm0 551.2c-62.6 0-113.3-50.7-113.3-113.3s50.7-113.3 113.3-113.3 113.3 50.7 113.3 113.3-50.7 113.3-113.3 113.3z" fill="#f27596"/><path d="m512.6 960.6c-60.4 0-119.1-11.8-174.3-35.2-53.3-22.6-101.2-54.8-142.3-96-41.1-41.1-73.4-89-96-142.3-23.4-55.2-35.2-113.9-35.2-174.3s11.8-119.1 35.2-174.3c22.6-53.3 54.8-101.2 96-142.3 41.1-41.1 89-73.4 142.3-96 55.2-23.3 113.8-35.2 174.3-35.2 60.4 0 119.1 11.8 174.3 35.2 53.3 22.6 101.2 54.8 142.3 96 41.1 41.1 73.4 89 96 142.3 23.4 55.2 35.2 113.9 35.2 174.3s-11.8 119.1-35.2 174.3c-22.6 53.3-54.8 101.2-96 142.3-41.1 41.1-89 73.4-142.3 96-55.2 23.3-113.9 35.2-174.3 35.2zm0-875.8c-57.8 0-113.8 11.3-166.6 33.6-51 21.6-96.7 52.4-136 91.7s-70.2 85.1-91.7 136c-22.4 52.9-33.7 108.9-33.7 166.7s11.3 113.8 33.6 166.6c21.6 51 52.4 96.7 91.7 136s85.1 70.2 136 91.7c52.8 22.3 108.8 33.6 166.6 33.6s113.8-11.3 166.6-33.6c51-21.6 96.7-52.4 136-91.7s70.2-85.1 91.7-136c22.3-52.8 33.6-108.8 33.6-166.6s-11.3-113.8-33.6-166.6c-21.6-51-52.4-96.7-91.7-136s-85.1-70.2-136-91.7c-52.7-22.4-108.7-33.7-166.5-33.7zm0 551.2c-67.9 0-123.2-55.3-123.2-123.2s55.3-123.2 123.2-123.2 123.2 55.3 123.2 123.2-55.3 123.2-123.2 123.2zm0-226.6c-57 0-103.4 46.4-103.4 103.4s46.4 103.4 103.4 103.4 103.4-46.4 103.4-103.4-46.4-103.4-103.4-103.4z" fill="#e01042"/><path d="m539.8 949.8c4.7-.3 9.4-.6 14.1-1.1 2.5-.2 4.9-.5 7.4-.8 4.5-.5 9-1.1 13.5-1.7 2.3-.3 4.7-.6 7-1 5.2-.8 10.3-1.7 15.4-2.7 1.5-.3 3-.5 4.5-.8 6.5-1.3 12.9-2.8 19.3-4.5 1.9-.5 3.7-1 5.6-1.5 4.5-1.2 9.1-2.5 13.5-3.8 2.4-.7 4.7-1.5 7.1-2.3 4-1.3 7.9-2.6 11.8-4 2.4-.9 4.9-1.7 7.3-2.6 4-1.5 8-3.1 11.9-4.7 2.1-.9 4.3-1.7 6.4-2.6 5.8-2.5 11.5-5.1 17.2-7.8 1.7-.8 3.4-1.7 5.1-2.6 4.1-2 8.1-4.1 12.1-6.2 2.5-1.3 4.9-2.7 7.3-4 3.2-1.8 6.4-3.6 9.5-5.5 2.5-1.5 5.1-3.1 7.6-4.6 3-1.8 5.9-3.7 8.8-5.7 2.5-1.6 5-3.3 7.5-5 3-2.1 6-4.2 8.9-6.4l11.7-8.7c3-2.3 5.9-4.6 8.8-7 2.6-2.1 5.2-4.4 7.8-6.6l6.6-5.7c2.6-2.4 5.3-4.8 7.8-7.2 2-1.9 4-3.7 5.9-5.6 2.6-2.6 5.3-5.1 7.8-7.8 1.7-1.7 3.4-3.5 5-5.3 9.5-10 18.6-20.5 27.1-31.4 1.1-1.4 2.3-2.9 3.4-4.3 2.6-3.4 5.1-6.8 7.5-10.2 1.2-1.6 2.3-3.2 3.4-4.8 2.5-3.5 4.9-7 7.2-10.6.9-1.4 1.9-2.9 2.8-4.3 11.3-17.6 21.3-36.1 30-55.3.6-1.2 1.1-2.4 1.7-3.7 1.9-4.3 3.8-8.7 5.5-13.1.5-1.3 1-2.5 1.5-3.8 1.8-4.6 3.6-9.2 5.2-13.9.1-.4.2-.7.4-1.1 1.8-5.2 3.6-10.4 5.2-15.7l.1-.1c7.9-25.6 13.4-52.2 16.5-79.6v-26.8c0-34.5-24.6-65.4-58.8-69.9-41.4-5.5-77.1 27-77.1 67.4v102.2c0 37.2-26.5 70.4-63.3 75.3-44.6 5.9-83-29-83-72.5 0 0 5.6-57.6 0-75.7-4-12.7-21.8-31.7-40.4-34.7-5.8 45.4-38.4 82.3-81.4 94.5-.9.2-1.7.4-2.6.7-3.5.9-7.1 1.6-10.8 2.2-1.2.2-2.4.4-3.6.5-4.6.6-9.2.9-13.9.9-3.5 0-6.9-.2-10.3-.5-1-.1-2-.2-2.9-.3-2.6-.3-5.2-.7-7.7-1.2-.9-.2-1.7-.3-2.6-.5-3.2-.7-6.3-1.5-9.3-2.4-1-.3-2-.7-2.9-1-2.1-.7-4.2-1.5-6.2-2.3-1.2-.5-2.5-1-3.7-1.6-1.8-.8-3.6-1.7-5.4-2.6-2.1-1-4.1-2.2-6.1-3.3-1.4-.8-2.9-1.7-4.3-2.6-1.6-1-3.1-2.1-4.6-3.2-.9-.6-1.8-1.3-2.6-2-5.6-4.3-10.8-9.1-15.5-14.3-.2-.2-.4-.4-.5-.6-6.9-7.7-12.6-16.4-17.2-25.8-7.2-14.9-11.3-31.5-11.3-49.2 0-5.9.6-11.6 1.5-17.3l-1.5-9.8c0-41.7-36.8-75.2-79.6-69.5-35.3 4.7-60.7 36.5-60.7 72.1v89.4c0 31.2-21.5 59.5-52.3 64.8-35.3 6.1-66.7-17.3-73.5-49.6l-11.4-62.7c-1.4-7.7-6.2-14.7-13.5-17.6-4.3-1.7-9-2.7-13.9-2.7-7.3 0-14.1 2.2-19.9 5.7.5 74.9 19.7 145.4 53.4 206.9 0-.1.1-.1.1-.2 32.3 59.2 78 110.1 132.8 148.8.4.3.8.6 1.3.9 15.1 10.6 31 20.2 47.5 28.8 1.1.6 2.3 1.2 3.4 1.8 7.2 3.7 14.5 7.2 22 10.5 1.2.5 2.3 1.1 3.5 1.6 8.4 3.6 16.9 7 25.5 10.1.9.3 1.9.6 2.9 1 7.4 2.6 15 5 22.6 7.2 2.2.6 4.4 1.3 6.6 1.9 7.5 2.1 15 3.9 22.7 5.6 1.3.3 2.5.6 3.8.9 8.8 1.8 17.7 3.4 26.6 4.7 1.8.3 3.6.5 5.5.7 7.4.9 14.9 1.8 22.3 2.4l7.8.6c9.2.6 18.4 1 27.7 1 7 0 13.9-.2 20.7-.5 2.1-.2 4.2-.4 6.4-.5z" fill="#593123"/><path d="m512.6 960.6c-8.6 0-17.6-.3-28.3-1-2.2-.1-4.4-.3-6.5-.5l-1.4-.1c-8.2-.7-16.1-1.6-22.7-2.4l-1.2-.2c-1.5-.2-3-.4-4.4-.6-9.7-1.4-18.6-3-27.2-4.8-.8-.2-1.6-.4-2.4-.5-.5-.1-1-.2-1.5-.4-7.7-1.7-15.5-3.6-23.2-5.7-2.2-.6-4.5-1.3-6.7-1.9-8.2-2.4-15.8-4.8-23.1-7.4-.4-.1-.7-.3-1.1-.4l-1.8-.6c-8.7-3.1-17.4-6.6-26.1-10.4-.7-.3-1.4-.6-2-.9-.5-.2-1-.4-1.5-.7-6.9-3-14-6.4-22.5-10.8l-.8-.4c-.9-.5-1.8-.9-2.7-1.4-16.9-8.9-33.2-18.8-48.6-29.5-.3-.2-.5-.4-.8-.5l-.5-.4c-55.6-39.1-102.2-91.1-134.9-150.4-.4-.5-.7-1-1-1.5-35.2-64.4-54.1-137.6-54.6-211.6 0-3.5 1.8-6.7 4.7-8.5 7.7-4.7 16.4-7.2 25.1-7.2 6 0 11.9 1.1 17.5 3.4 10 4 17.5 13.6 19.6 25.1l11.2 62.6c2.8 13.4 10.6 25.1 22 33 11.7 8.1 25.9 11.2 40.1 8.8 25.1-4.4 44.1-28.1 44.1-55.1v-89.4c0-41.5 29.8-76.7 69.3-81.9 22.9-3 46 3.9 63.4 19.1 17.2 15.1 27.2 36.7 27.4 59.4l1.4 9.1c.1 1 .1 2 0 3-.9 6-1.3 11-1.3 15.8 0 15.5 3.5 30.6 10.4 44.9 4.1 8.6 9.4 16.5 15.7 23.6l.5.6c4.3 4.8 9 9.2 14.1 13.1l2.4 1.8c1.3.9 2.7 2 4.2 2.9 1.1.7 2.3 1.4 3.5 2.1l.4.3c1.9 1.1 3.7 2.1 5.5 3 2 1 3.5 1.8 5 2.4.9.4 2 .9 3.4 1.4 1.8.7 3.6 1.4 5.7 2.1.4.1.8.3 1.2.4.5.2 1 .3 1.5.5 2.7.8 5.6 1.6 8.5 2.2.4.1.8.2 1.3.2.4.1.7.1 1.1.2 2.3.4 4.7.8 7 1.1h.3c.8.1 1.6.2 2.3.3 3.6.3 6.6.5 9.5.5 3.8 0 7.9-.3 12.7-.9.7-.1 1.5-.2 2.2-.3l1-.2c3.4-.5 6.7-1.2 9.9-2 .3-.1.7-.2 1.1-.3s.9-.2 1.3-.3c39.9-11.3 69.1-45.1 74.3-86.2.3-2.7 1.7-5.1 3.9-6.7 2.1-1.6 4.8-2.3 7.5-1.8 21.9 3.5 43.1 24.7 48.3 41.5 5.9 19 1.2 71 .4 79.1.1 18 8 35.1 21.7 47.1 13.9 12.2 31.7 17.6 50.1 15.1 31.2-4.1 54.8-32.3 54.8-65.5v-102.4c0-22.4 9.7-43.7 26.7-58.6 16.9-14.8 39.4-21.6 61.7-18.6 38.4 5.1 67.4 39.4 67.4 79.7v26.9c0 .4 0 .7-.1 1.1-3.1 27.8-8.8 55.2-16.8 81.4-.1.3-.2.7-.4 1-1.5 4.9-3.2 9.8-5 15.2l-.1.4c-.1.3-.2.5-.3.8-1.5 4.2-3.2 8.7-5.3 14.2l-.3.7c-.4 1-.8 2.1-1.2 3.1-1.8 4.5-3.7 9.1-5.7 13.4l-1.2 2.7-.5 1.1c-8.8 19.4-19.1 38.5-30.7 56.6l-.8 1.3c-.7 1.1-1.4 2.1-2 3.2-2.3 3.4-4.7 7-7.4 10.9-1.2 1.7-2.3 3.3-3.5 5-2.1 2.9-4.8 6.6-7.7 10.4-.7 1-1.5 1.9-2.2 2.8-.4.5-.8 1-1.2 1.6-8.6 11-18 21.8-27.7 32.1l-1.3 1.4c-1.3 1.4-2.6 2.7-3.9 4-2.5 2.6-5 5-8 7.9-2.2 2.1-4.2 4-6 5.8-3 2.8-5.6 5.2-8 7.3-2.2 1.9-4.4 3.8-6.5 5.6l-1.7 1.5c-2.1 1.8-4.3 3.7-6.5 5.5-2.6 2.2-5.3 4.2-8 6.3l-1.1.8c-3.9 3-7.9 6-11.9 8.9l-.7.5c-2.7 2-5.5 4-8.4 6-2.1 1.4-4.2 2.8-6.2 4.1l-1.4.9c-3.6 2.4-6.4 4.1-9 5.8-2.5 1.5-5.1 3.1-7.8 4.7-2.9 1.7-6.1 3.6-9.8 5.6l-1.4.8c-2 1.1-4 2.3-6.1 3.4-4.5 2.4-9 4.7-12.4 6.3-.7.3-1.3.7-2 1-1.1.5-2.1 1.1-3.2 1.6-5.6 2.7-11.3 5.3-17.6 8-1.4.6-2.9 1.2-4.4 1.8-.7.3-1.5.6-2.2.9-4.8 1.9-8.6 3.5-12.2 4.8-2.5.9-4.9 1.8-7.4 2.7-4 1.4-8 2.8-12.1 4.1l-.6.2-6.6 2.1c-4.2 1.3-8.6 2.5-13.9 3.9l-2.1.6c-1.2.3-2.4.7-3.6 1-6.7 1.7-13.3 3.2-19.7 4.6-.9.2-1.9.4-2.8.5l-1.8.3c-5.7 1.1-10.8 2-15.7 2.8-1.8.3-3.6.5-5.4.8l-1.7.2c-4.7.7-9.4 1.3-13.8 1.7-2.9.3-5.3.6-7.5.8-4.4.4-9.1.8-14.4 1.1-.7 0-1.4.1-2.2.1l-4.5.3c-8.5.4-15.4.6-21.9.6zm-376.7-244.5c.4.5.7 1 1 1.5 31.3 57.4 76.2 107.7 129.9 145.4.2.2.4.3.7.5l.6.4c14.7 10.2 30.3 19.7 46.4 28.2.8.4 1.7.9 2.5 1.3l.8.4c8.1 4.1 14.9 7.4 21.5 10.3.6.3 1.2.5 1.8.8.5.2 1.1.5 1.6.7 8.3 3.6 16.7 6.9 25 9.9.4.2.9.3 1.3.4.5.2 1 .3 1.5.5 7 2.5 14.2 4.8 22.1 7.1 2.1.6 4.3 1.2 6.4 1.8 7.4 2 14.9 3.9 22.2 5.5.6.1 1.3.3 1.9.4s1.2.3 1.8.4c8.3 1.7 16.8 3.2 26 4.6 1.3.2 2.7.4 4 .5l1.3.2c6.4.8 14.1 1.7 21.9 2.3l1.4.1c2.1.2 4.1.3 6.2.5 10.3.6 18.9.9 27 .9 6.2 0 12.9-.2 20.3-.5 1.4-.1 2.7-.2 4.1-.2.8-.1 1.5-.1 2.3-.1 5.1-.3 9.6-.7 13.8-1 2.1-.2 4.4-.4 7.2-.7 4.2-.5 8.6-1 13.1-1.7l1.8-.3c1.7-.2 3.4-.5 5-.7 4.7-.7 9.6-1.6 15-2.7.7-.1 1.4-.3 2.1-.4.8-.1 1.5-.3 2.3-.4 6.1-1.3 12.5-2.7 18.8-4.4 1.1-.3 2.1-.6 3.2-.9.8-.2 1.5-.4 2.3-.6 5.1-1.4 9.3-2.6 13.2-3.8 2.1-.6 4.2-1.3 6.3-2l.7-.2c3.9-1.3 7.8-2.6 11.6-3.9 2.4-.9 4.8-1.7 7.1-2.6 3.4-1.3 7.1-2.7 11.7-4.6.8-.3 1.5-.6 2.3-.9 1.3-.5 2.6-1.1 4-1.6 6-2.6 11.5-5 16.8-7.6.9-.4 1.8-.9 2.7-1.4.7-.4 1.5-.8 2.2-1.1 3.3-1.6 7.6-3.8 11.8-6.1 1.9-1 3.8-2.1 5.8-3.2l1.4-.8c3.5-2 6.6-3.7 9.3-5.4 2.6-1.5 5.1-3 7.4-4.5 2.5-1.6 5.2-3.3 8.6-5.5l1.5-1c2-1.3 4-2.6 5.9-3.9 2.7-1.8 5.3-3.7 8-5.7l.7-.5c3.9-2.8 7.7-5.7 11.4-8.5l1.1-.9c2.6-2 5.1-3.9 7.5-5.9 2-1.7 4-3.4 6.1-5.2l1.7-1.5c2.1-1.8 4.2-3.6 6.2-5.4 2.3-2.1 4.7-4.3 7.7-7 1.8-1.7 3.7-3.5 5.8-5.5 2.9-2.8 5.3-5.2 7.7-7.6 1.2-1.2 2.4-2.5 3.6-3.8l1.3-1.4c9.3-9.8 18.3-20.2 26.5-30.7.4-.6.9-1.1 1.3-1.7.7-.9 1.4-1.7 2-2.6 2.7-3.6 5.4-7.2 7.3-10 1.1-1.6 2.3-3.1 3.4-4.7 2.6-3.7 4.9-7.1 7-10.4.6-1 1.3-2 1.9-2.9l.8-1.3c11.1-17.3 20.9-35.5 29.3-54.1l.5-1.1c.4-.8.7-1.6 1.1-2.5 1.8-4.2 3.7-8.5 5.4-12.8.4-1 .8-2 1.2-2.9l.3-.8c2.1-5.3 3.7-9.6 5.1-13.6l.1-.4c.1-.2.2-.5.2-.7 1.9-5.4 3.6-10.5 5.1-15.4.1-.3.2-.7.4-1 7.5-24.6 12.8-50.3 15.8-76.4v-26.3c0-30.5-21.6-56.3-50.3-60.1-16.9-2.2-33.3 2.7-46 13.9-12.7 11.1-19.9 27-19.9 43.7v102.3c0 43.1-30.9 79.7-71.9 85.1-23.8 3.1-47.8-4.1-65.8-19.9a82.94 82.94 0 0 1 -28.4-62.5v-1c2.1-21.5 4.1-60 .4-71.8-2.3-7.5-12.1-19-23.2-24.7-9.9 43.6-42.8 78.7-86.5 91-.6.2-1.3.3-2 .5-.3.1-.6.1-.9.2-3.9 1-7.8 1.8-11.8 2.4l-.9.1c-1 .2-2 .3-3 .4-5.7.7-10.5 1-15.1 1-3.4 0-7-.2-11.2-.6-1-.1-1.9-.2-2.9-.3h-.3c-2.8-.3-5.6-.8-8.4-1.3-.3-.1-.6-.1-.8-.2-.7-.1-1.3-.2-2-.4-3.5-.7-6.9-1.6-10.1-2.6-.8-.2-1.5-.5-2.3-.8l-.9-.3c-2.4-.8-4.6-1.6-6.8-2.5-1.6-.6-2.9-1.2-4-1.7-1.8-.8-3.7-1.7-5.9-2.8-2.1-1.1-4.3-2.3-6.6-3.6l-.4-.3c-1.4-.8-2.8-1.6-4.2-2.6-1.8-1.1-3.4-2.3-5-3.4-1-.7-1.9-1.4-2.9-2.2-6-4.6-11.7-9.9-16.8-15.6l-.2-.2c-.1-.2-.3-.3-.4-.5-7.5-8.4-13.8-17.9-18.7-28.1-8.2-16.9-12.3-34.9-12.3-53.5 0-5.3.4-11 1.3-17.3l-1.2-8.3c-.1-.5-.1-1-.1-1.5 0-17.3-7.5-33.8-20.6-45.3-13.3-11.6-30.2-16.7-47.7-14.4-29.7 3.9-52.1 30.7-52.1 62.3v89.4c0 17.5-6 34.6-16.8 48.3-11.1 14-26.6 23.3-43.7 26.3-19.4 3.4-38.8-.9-54.8-12-15.5-10.8-26.2-26.9-30.1-45.3 0-.1 0-.2-.1-.3l-11.2-62.8c-.9-4.8-3.7-8.7-7.4-10.2-3.3-1.3-6.7-2-10.2-2-3.4 0-6.7.6-9.9 1.9 1.3 69 19 136 51.1 195.4z" fill="#e01042"/><path d="m150.5 409.4c-3.8 0-7.4-2.2-9.1-5.9-2.2-5 .1-10.8 5.1-13l78.2-34.4c5-2.2 10.8.1 13 5.1s-.1 10.8-5.1 13l-78.2 34.4c-1.2.5-2.6.8-3.9.8zm217-59.6c-1.3 0-2.6-.3-3.8-.8l-65.7-27.8c-5-2.1-7.4-7.9-5.3-13 2.1-5 7.9-7.4 13-5.3l65.6 27.8c5 2.1 7.4 7.9 5.3 13-1.6 3.8-5.2 6.1-9.1 6.1zm58-102.7c-1.8 0-3.5-.5-5.2-1.5-4.7-2.9-6.1-8.9-3.3-13.6l47.9-78.2c2.9-4.7 8.9-6.1 13.6-3.3 4.7 2.9 6.1 8.9 3.3 13.6l-47.8 78.3c-1.9 3.1-5.1 4.7-8.5 4.7zm154 21.9c-3.9 0-7.5-2.3-9.1-6.1l-32.8-78.2c-2.1-5 .3-10.8 5.3-12.9s10.8.3 12.9 5.3l32.8 78.2c2.1 5-.3 10.8-5.3 12.9-1.2.6-2.5.8-3.8.8zm106 66.9c-3.2 0-6.4-1.6-8.3-4.5-3-4.6-1.7-10.7 2.9-13.7l68.1-44.2c4.6-3 10.7-1.7 13.7 2.9s1.7 10.7-2.9 13.7l-68.1 44.2c-1.7 1.1-3.6 1.6-5.4 1.6zm156.4 73.5h-75.7c-5.5 0-9.9-4.4-9.9-9.9s4.4-9.9 9.9-9.9h75.7c5.5 0 9.9 4.4 9.9 9.9s-4.4 9.9-9.9 9.9z" fill="#593123"/><path d="m507.8 893.9c-44.5 0-88-8.1-129.2-24.1-5.1-2-7.6-7.7-5.6-12.8s7.7-7.6 12.8-5.6c38.9 15.1 79.9 22.7 122 22.7 45.6 0 89.8-8.9 131.4-26.5 5-2.1 10.8.2 13 5.3 2.1 5-.2 10.8-5.3 13-44.1 18.5-90.9 28-139.1 28z" fill="#f27596"/></svg>